<?xml version="1.0" standalone="no"?><!DOCTYPE svg PUBLIC "-//W3C//DTD SVG 1.1//EN" "http://www.w3.org/Graphics/SVG/1.1/DTD/svg11.dtd"><svg t="1676444935406" class="icon" viewBox="0 0 1024 1024" version="1.1" xmlns="http://www.w3.org/2000/svg" p-id="2825" xmlns:xlink="http://www.w3.org/1999/xlink" width="200" height="200"><path d="M384.002 0.016l0 95.9985c73.486852 0 144.701739 14.367776 211.708692 42.703333 64.766988 27.391572 122.958079 66.638959 172.941298 116.622178s89.230606 108.17431 116.622178 172.941298c28.335557 67.006953 42.703333 138.23784 42.703333 211.708692l95.9985 0c0-353.450477-286.539523-639.99-639.99-639.99z" fill="#000000" p-id="2826"></path><path d="M384.002 192.013l0 95.9985c94.014531 0 182.41315 36.607428 248.892111 103.102389s103.102389 154.87758 103.102389 248.892111l95.9985 0c0-247.420134-200.572866-447.993-447.993-447.993z" fill="#000000" p-id="2827"></path><path d="M480.0005 384.01l-63.999 63.999-223.9965 63.999-191.997 415.9935 25.375604 25.375604 232.796363-232.796363c-1.407978-5.279918-2.175966-10.847831-2.175966-16.575741 0-35.343448 28.655552-63.999 63.999-63.999s63.999 28.655552 63.999 63.999-28.655552 63.999-63.999 63.999c-5.727911 0-11.279824-0.767988-16.559741-2.175966l-232.796363 232.796363 25.375604 25.375604 415.9935-191.997 63.999-223.9965 63.999-63.999-159.9975-159.9975z" fill="#000000" p-id="2828"></path></svg>